# Blender 5.2.0 LTS
# www.blender.org
o Room
v -0.516984 0.000000 1.000000
v -0.516984 2.000000 1.000000
v -0.516984 0.000000 -1.000000
v -0.516984 2.000000 -1.000000
v 7.516985 0.000000 1.000000
v 7.516985 2.000000 1.000000
v 7.516985 0.000000 -1.000000
v 7.516985 2.000000 -1.000000
vn -0.0000 1.0000 -0.0000
vn -0.0000 -1.0000 -0.0000
s 1
f 3//1 1//1 5//1 7//1
f 8//2 6//2 2//2 4//2
o RightWall
v -0.516984 0.000000 1.000000
v -0.516984 2.000000 1.000000
v 7.516985 0.000000 1.000000
v 7.516985 2.000000 1.000000
vn -0.0000 -0.0000 -1.0000
s 1
f 11//3 9//3 10//3 12//3
o LeftWall
v -0.516984 0.000000 -1.000000
v -0.516984 2.000000 -1.000000
v 7.516985 0.000000 -1.000000
v 7.516985 2.000000 -1.000000
vn -0.0000 -0.0000 1.0000
s 1
f 13//4 15//4 16//4 14//4
o RightCube
v 3.429170 0.000000 0.503877
v 3.429170 0.556350 0.503877
v 3.596127 0.000000 -0.026832
v 3.596127 0.556350 -0.026832
v 3.959879 0.000000 0.670833
v 3.959879 0.556350 0.670833
v 4.126835 0.000000 0.140125
v 4.126835 0.556350 0.140125
vn -0.9539 -0.0000 -0.3001
vn 0.3001 -0.0000 -0.9539
vn 0.9539 -0.0000 0.3001
vn -0.3001 -0.0000 0.9539
vn -0.0000 -1.0000 -0.0000
vn -0.0000 1.0000 -0.0000
s 0
f 17//5 18//5 20//5 19//5
f 19//6 20//6 24//6 23//6
f 23//7 24//7 22//7 21//7
f 21//8 22//8 18//8 17//8
f 19//9 23//9 21//9 17//9
f 24//10 20//10 18//10 22//10
o LeftCube
v 4.291601 0.000000 0.027762
v 4.291601 1.024554 0.027762
v 4.148531 0.000000 -0.509879
v 4.148531 1.024554 -0.509879
v 4.829241 0.000000 -0.115308
v 4.829241 1.024554 -0.115308
v 4.686172 0.000000 -0.652948
v 4.686172 1.024554 -0.652948
vn -0.9664 -0.0000 0.2572
vn -0.2572 -0.0000 -0.9664
vn 0.9664 -0.0000 -0.2572
vn 0.2572 -0.0000 0.9664
vn -0.0000 -1.0000 -0.0000
vn -0.0000 1.0000 -0.0000
s 0
f 25//11 26//11 28//11 27//11
f 27//12 28//12 32//12 31//12
f 31//13 32//13 30//13 29//13
f 29//14 30//14 26//14 25//14
f 27//15 31//15 29//15 25//15
f 32//16 28//16 26//16 30//16
o BackWall
v -0.516984 0.000000 1.000000
v -0.516984 2.000000 1.000000
v -0.516984 0.000000 -1.000000
v -0.516984 2.000000 -1.000000
vn 1.0000 -0.0000 -0.0000
s 1
f 33//17 35//17 36//17 34//17
